<?xml version="1.0" standalone="no"?>
<!DOCTYPE svg PUBLIC "-//W3C//DTD SVG 20010904//EN"
 "http://www.w3.org/TR/2001/REC-SVG-20010904/DTD/svg10.dtd">
<svg version="1.0" xmlns="http://www.w3.org/2000/svg"
 width="300.000000pt" height="300.000000pt" viewBox="0 0 300.000000 300.000000"
 preserveAspectRatio="xMidYMid meet">
<metadata>
Created by potrace 1.11, written by Peter Selinger 2001-2013
</metadata>
<g transform="translate(0.000000,300.000000) scale(0.100000,-0.100000)"
fill="#000000" stroke="none">
<path d="M1348 2995 c-2 -2 -23 -6 -48 -10 -126 -17 -242 -46 -330 -82 -8 -4
-17 -7 -20 -8 -40 -14 -135 -60 -219 -107 -137 -77 -306 -228 -416 -371 -30
-40 -60 -77 -65 -84 -6 -7 -10 -15 -10 -19 0 -3 -9 -19 -20 -34 -59 -82 -151
-307 -180 -435 -31 -138 -35 -184 -34 -360 0 -145 6 -193 38 -350 13 -63 70
-214 119 -315 27 -56 108 -184 119 -188 4 -2 8 -8 8 -14 0 -14 91 -120 170
-196 155 -152 370 -282 575 -348 46 -15 217 -54 263 -60 73 -10 320 -11 393
-2 160 21 342 77 494 155 64 32 194 113 222 138 6 5 31 26 54 45 151 123 290
300 382 485 43 86 101 242 111 295 2 14 9 45 14 70 20 89 26 157 27 295 0 211
-16 313 -82 505 -36 106 -143 313 -192 372 -6 7 -32 40 -58 73 -52 65 -158
172 -218 220 -53 42 -144 105 -152 105 -3 0 -14 6 -22 14 -38 33 -266 136
-335 151 -10 3 -42 11 -70 19 -28 8 -70 17 -94 21 -23 4 -54 9 -70 12 -32 5
-349 13 -354 8z"/>
</g>
</svg>
